# xmcd CD database file
#
# Track frame offsets:
#	182
#	22110
#	48400
#	78160
#	96480
#	121260
#	147405
#	167232
#	190795
#	220420
#
# Disc length: 3373 seconds
#
# Revision: 0
# Processed by: cddbd v1.5.2PL0 Copyright (c) Steve Scherf et al.
# Submitted via: CDex 1.70beta2
#
DISCID=8e0d2b0a
DTITLE=Duke Jordan - Double Duke Disk2
DYEAR=1997
DGENRE=Jazz
TTITLE0=The Fuzz
TTITLE1=Thinking Of You
TTITLE2=Anything Can Happen
TTITLE3=The Peanut Bar
TTITLE4=Foxie Cakes
TTITLE5=Light Foot
TTITLE6=My Queen Is Home To Stay
TTITLE7=Deacon's Blues
TTITLE8=Diamond Stud
TTITLE9=It's Hard To Know
EXTD=YEAR: 1997
EXTT0=
EXTT1=
EXTT2=
EXTT3=
EXTT4=
EXTT5=
EXTT6=
EXTT7=
EXTT8=
EXTT9=
PLAYORDER=
